<svg width="24" height="24" viewBox="0 0 24 24" fill="none" xmlns="http://www.w3.org/2000/svg">
<path d="M15.7292 3.88389C17.1632 2.44389 19.2612 2.41389 20.4232 3.57989C21.5872 4.74789 21.5552 6.85989 20.1202 8.29989L17.6962 10.7329C17.5558 10.8739 17.4771 11.0648 17.4775 11.2638C17.4778 11.4628 17.5572 11.6535 17.6982 11.7939C17.8392 11.9343 18.0301 12.013 18.2291 12.0126C18.4281 12.0123 18.6188 11.9329 18.7592 11.7919L21.1832 9.35889C23.0932 7.43989 23.3332 4.37689 21.4862 2.52089C19.6362 0.663893 16.5792 0.905894 14.6662 2.82489L9.8192 7.69189C7.9072 9.61089 7.66721 12.6739 9.51621 14.5289C9.58473 14.6027 9.66742 14.662 9.75934 14.7031C9.85126 14.7443 9.95053 14.7665 10.0512 14.7685C10.1519 14.7704 10.252 14.7521 10.3454 14.7146C10.4389 14.677 10.5238 14.621 10.5952 14.5499C10.6665 14.4789 10.7228 14.3941 10.7607 14.3008C10.7986 14.2075 10.8173 14.1075 10.8158 14.0068C10.8142 13.9061 10.7923 13.8068 10.7515 13.7147C10.7107 13.6226 10.6518 13.5397 10.5782 13.4709C9.4152 12.3029 9.44621 10.1909 10.8812 8.75089L15.7292 3.88389Z" fill="#0D2D54"/>
<path opacity="0.5" d="M14.4863 9.47011C14.3457 9.32914 14.1549 9.24979 13.9559 9.24951C13.7568 9.24923 13.5658 9.32804 13.4248 9.46861C13.2838 9.60917 13.2045 9.79998 13.2042 9.99905C13.2039 10.1981 13.2827 10.3891 13.4233 10.5301C14.5873 11.6981 14.5553 13.8091 13.1203 15.2501L8.27131 20.1161C6.83731 21.5561 4.73931 21.5861 3.57731 20.4201C2.41431 19.2521 2.44531 17.1401 3.88031 15.7001L6.30431 13.2671C6.37583 13.1978 6.43285 13.115 6.47202 13.0234C6.51119 12.9319 6.53174 12.8334 6.53246 12.7338C6.53318 12.6343 6.51406 12.5355 6.47622 12.4434C6.43838 12.3513 6.38257 12.2676 6.31206 12.1973C6.24154 12.127 6.15773 12.0714 6.06551 12.0339C5.97328 11.9963 5.8745 11.9774 5.77492 11.9784C5.67534 11.9794 5.57696 12.0003 5.48551 12.0397C5.39407 12.0791 5.31139 12.1364 5.24231 12.2081L2.81831 14.6411C0.907305 16.5601 0.667305 19.6231 2.51631 21.4801C4.36631 23.3381 7.4233 23.0951 9.3353 21.1761L14.1833 16.3091C16.0933 14.3911 16.3333 11.3271 14.4863 9.47211" fill="#0D2D54"/>
</svg>
